<?xml version="1.0" encoding="UTF-8" standalone="no"?>
<!-- Created with Inkscape (http://www.inkscape.org/) -->

<svg
   xmlns:dc="http://purl.org/dc/elements/1.1/"
   xmlns:cc="http://creativecommons.org/ns#"
   xmlns:rdf="http://www.w3.org/1999/02/22-rdf-syntax-ns#"
   xmlns:svg="http://www.w3.org/2000/svg"
   xmlns="http://www.w3.org/2000/svg"
   xmlns:sodipodi="http://sodipodi.sourceforge.net/DTD/sodipodi-0.dtd"
   xmlns:inkscape="http://www.inkscape.org/namespaces/inkscape"
   width="744.09448"
   height="1052.3622"
   id="svg2"
   version="1.1"
   inkscape:version="0.48.4 r9939"
   sodipodi:docname="na_biegunach_1.svg">
  <defs
     id="defs4" />
  <sodipodi:namedview
     id="base"
     pagecolor="#ffffff"
     bordercolor="#666666"
     borderopacity="1.0"
     inkscape:pageopacity="0.0"
     inkscape:pageshadow="2"
     inkscape:zoom="0.60119991"
     inkscape:cx="98.283939"
     inkscape:cy="385.37698"
     inkscape:document-units="mm"
     inkscape:current-layer="layer1"
     showgrid="false"
     units="mm"
     inkscape:window-width="1280"
     inkscape:window-height="975"
     inkscape:window-x="0"
     inkscape:window-y="25"
     inkscape:window-maximized="1" />
  <metadata
     id="metadata7">
    <rdf:RDF>
      <cc:Work
         rdf:about="">
        <dc:format>image/svg+xml</dc:format>
        <dc:type
           rdf:resource="http://purl.org/dc/dcmitype/StillImage" />
        <dc:title />
      </cc:Work>
    </rdf:RDF>
  </metadata>
  <g
     inkscape:label="Layer 1"
     inkscape:groupmode="layer"
     id="layer1"
     transform="translate(0,-2.5390623e-6)">
    <g
       id="g2988-3-6"
       transform="matrix(1.2476116,0,0,1.2476116,-56.311393,-132.4195)">
      <path
         style="fill:none;stroke:#000000;stroke-width:1px;stroke-linecap:butt;stroke-linejoin:miter;stroke-opacity:1"
         d="m 283.53125,445.1875 c -6.10801,0.339 -19.03193,3.37637 -16.65625,9.1875 -0.41205,2.62955 -2.09684,2.1729 -5.21875,7 -4.17299,9.57956 -9.81244,18.54587 -15.625,27.1875 -1.97484,7.99625 8.73101,13.02847 14.8125,8.6875 5.98438,-3.97508 11.58468,-8.94075 18.375,-11.625 0.11235,13.26845 -6.58209,25.76497 -4.34375,39.21875 0.48903,5.17234 1.54486,10.37717 2.53125,15.4375 -5.11519,8.80571 -13.12971,16.27909 -16.15625,26.0625 -1.76111,10.23315 0.49718,21.42561 -4.78125,30.65625 -9.00783,-3.59249 -16.49258,-9.69648 -24.90625,-14.40625 -1.87821,4.91412 -7.25428,10.71352 -6.96544,15.00024 39.86233,26.30229 88.82666,39.89546 136.64289,32.95209 32.68409,-4.31843 63.72925,-16.89935 92.01005,-33.42108 -2.99257,-5.10505 -5.91561,-10.25065 -8.875,-15.375 -6.57113,3.9797 -12.92226,8.46507 -20.21875,11.21875 -5.29815,-5.95375 -8.36411,-12.96411 -9.49449,-20.82061 -2.27361,-7.82411 -2.36092,-16.82123 -5.19301,-24.17939 -8.82832,-4.86463 -4.85628,-16.22738 -6.5,-24.3125 0.007,-2.6318 -2.15008,-6.62538 -1.59375,-8.09375 7.36317,3.30715 6.45055,13.83115 8.1875,20.6875 0.56394,8.97458 9.45672,18.55135 18.875,14.84375 5.27709,-2.14395 8.04162,-7.69772 9.75,-12.8125 -5.87491,0.58206 -11.82045,-3.26682 -11.9375,-9.5625 -1.36739,-9.70478 2.4749,-21.35668 -5.4375,-29.0625 -7.36163,-7.19597 -18.65922,-2.69108 -26.1875,1.03125 -11.50645,-8.44135 -26.91849,-2.8402 -39.47698,-0.28723 -13.72755,3.18445 -28.38607,6.89201 -42.27302,2.91223 1.10223,-17.13959 1.34514,-36.96114 -10.375,-50.75 -4.74216,-5.28854 -11.94677,-7.79799 -18.96875,-7.375 z"
         id="path2982-3-1"
         inkscape:connector-curvature="0"
         sodipodi:nodetypes="cccccccccccccccccccccccccccccc" />
      <path
         style="fill:none;stroke:#000000;stroke-width:1px;stroke-linecap:butt;stroke-linejoin:miter;stroke-opacity:1"
         d="m 366.40625,546.8125 c -18.76785,1.31016 -36.32691,14.14701 -55.69754,9.35764 -5.43412,-1.23832 -10.70321,-3.32469 -15.52121,-6.10764 -5.58112,6.84742 -12.36868,12.55058 -17.8125,19.40625 -1.89249,10.92322 -6.33632,21.80701 -4.65625,33 23.06276,12.98721 50.96826,14.20368 77.02845,12.92521 20.62231,-1.72706 41.88577,-4.94949 59.6903,-15.98771 -6.70044,-11.8449 -10.77556,-24.85452 -13.71875,-38.0625 -8.98286,-2.03825 -17.99832,-6.04642 -22.75,-14.375 -2.17436,-0.2591 -4.37779,-0.28234 -6.5625,-0.15625 z"
         id="path2986-1-5"
         inkscape:connector-curvature="0" />
    </g>
  </g>
</svg>
